# xmcd
#
# Track frame offsets:
#	150
#	11822
#	24722
#	34437
#	49620
#	60297
#	77400
#	91500
#	108857
#	133575
#	144215
#	159040
#	186287
#	199180
#	216075
#	231207
#	254050
#	281605
#	298862
#	312595
#
# Disc length: 4290 seconds
#
# Revision: 1
# Processed by: cddbd v1.4b42PL1 Copyright (c) Steve Scherf et al.
# Submitted via: audiograbber 1.80
#
DISCID=1710c014
DTITLE=Bobby Womack - The Masters
DYEAR=1900
DGENRE=
TTITLE0=Lookin' for a Love
TTITLE1=It's all over Now
TTITLE2=Fly me to the Moon (in other Words)
TTITLE3=California Dreamin'
TTITLE4=I Left My Heart in San Francisco
TTITLE5=Harry Hippie
TTITLE6=Sweet Caroline (Good Times Never Seemed so Good)
TTITLE7=Across the 110th Street
TTITLE8=Love Has Finally Come at Last
TTITLE9=It's Gonna Rain
TTITLE10=How I Miss You Baby
TTITLE11=The Preacher
TTITLE12=More than I Could Stand
TTITLE13=You're Welcome, Stop on by
TTITLE14=All along the Watchtower
TTITLE15=Just my Imagination
TTITLE16=Tell me Why
TTITLE17=Check it Out
TTITLE18=Where There's a Will, There's a Way
TTITLE19=I'm a Midnight Mover
EXTD=
EXTT0=
EXTT1=
EXTT2=
EXTT3=
EXTT4=
EXTT5=
EXTT6=
EXTT7=
EXTT8=
EXTT9=
EXTT10=
EXTT11=
EXTT12=
EXTT13=
EXTT14=
EXTT15=
EXTT16=
EXTT17=
EXTT18=
EXTT19=
PLAYORDER=
